<svg height="12" viewBox="0 0 12 12" width="12" xmlns="http://www.w3.org/2000/svg"><path d="m2.08859116 2.2156945.05785545-.06924789c.17356635-.17356635.44299075-.1928515.63785889-.05785545l.06924789.05785545 3.14644661 3.14655339 3.14644661-3.14655339c.19526215-.19526215.51184463-.19526215.70710678 0 .19526211.19526215.19526211.51184463 0 .70710678l-3.14655339 3.14644661 3.14655339 3.14644661c.17356631.17356635.19285151.44299075.05785545.63785889l-.05785545.06924789c-.17356635.17356631-.44299075.19285151-.63785889.05785545l-.06924789-.05785545-3.14644661-3.14655339-3.14644661 3.14655339c-.19526215.19526211-.51184463.19526211-.70710678 0-.19526215-.19526215-.19526215-.51184463 0-.70710678l3.14655339-3.14644661-3.14655339-3.14644661c-.17356635-.17356635-.1928515-.44299075-.05785545-.63785889l.05785545-.06924789z" fill="#212121"/></svg>